<svg width="27" height="18" viewBox="0 0 27 18" fill="none" xmlns="http://www.w3.org/2000/svg">
<path d="M8.20814 17.6855L0.312229 9.78959C-0.111563 9.36579 -0.111563 8.62973 0.312229 8.20594L8.20814 0.310031C8.63193 -0.11376 9.34568 -0.11376 9.79178 0.310031C10.2156 0.756128 10.2156 1.44758 9.79178 1.89367L3.81409 7.89368H25.6505C26.2081 7.89368 26.6542 8.29516 26.7434 8.80817L26.7658 9.00892C26.7658 9.56654 26.3643 10.0126 25.8513 10.1019L25.6505 10.1242H3.81409L9.79178 16.1019C10.2156 16.5256 10.2156 17.2394 9.79178 17.6855C9.34568 18.1093 8.65423 18.1093 8.20814 17.6855Z" fill="white"/>
</svg>
